<svg width="32" height="32" viewBox="0 0 32 32" fill="none" xmlns="http://www.w3.org/2000/svg">
<path fill-rule="evenodd" clip-rule="evenodd" d="M20.8291 0.0313304C20.8522 -0.00190233 20.8975 -0.00997878 20.9304 0.0132911L23.1806 1.60429C23.2136 1.62756 23.2216 1.67336 23.1985 1.70659L20.0666 6.22305C21.5892 6.71423 22.6265 7.24405 22.6265 7.24405C22.6265 7.24405 20.091 11.648 15.7904 11.648C11.4898 11.648 8.43387 7.54343 8.43387 7.54343C8.43387 7.54343 9.51745 6.84517 11.1237 6.24629L7.68838 2.11238C7.66257 2.0813 7.66659 2.03497 7.69736 2.00889L9.80169 0.225919C9.83251 0.199842 9.87838 0.203895 9.90419 0.234974L14.2538 5.46924C14.6263 5.4267 15.0057 5.40292 15.3886 5.40292C15.9389 5.40292 16.4886 5.44517 17.0252 5.51686L20.8291 0.0313304ZM21.6799 11.8566C22.8276 11.0289 24.5642 8.86876 24.5642 8.86876C24.5642 8.86876 29 12.4182 29 19.9443C29 27.4704 21.3311 32 21.3311 32C21.3311 32 17.6671 28.2636 16.7676 23.5272C15.8682 18.7909 18.0982 13.5316 18.0982 13.5316C18.0982 13.5316 20.5322 12.6842 21.6799 11.8566V11.8566ZM9.32006 11.8566C8.17242 11.0289 6.43582 8.86876 6.43582 8.86876C6.43582 8.86876 2 12.4182 2 19.9443C2 27.4704 9.66885 32 9.66885 32C9.66885 32 13.3329 28.2636 14.2324 23.5272C15.1318 18.7909 12.9018 13.5316 12.9018 13.5316C12.9018 13.5316 10.4678 12.6842 9.32006 11.8566V11.8566Z" fill="url(#paint0_linear_8_18378)"/>
<defs>
<linearGradient id="paint0_linear_8_18378" x1="2" y1="0" x2="29" y2="32" gradientUnits="userSpaceOnUse">
<stop stop-color="white"/>
<stop offset="1" stop-color="white" stop-opacity="0"/>
</linearGradient>
</defs>
</svg>
