<svg width="32" height="33" viewBox="0 0 32 33" fill="none" xmlns="http://www.w3.org/2000/svg">
<path fill-rule="evenodd" clip-rule="evenodd" d="M14.3577 28.7035C14.9656 28.7966 15.5882 28.8448 16.2222 28.8448C22.9724 28.8448 28.4444 23.3728 28.4444 16.6226C28.4444 9.87245 22.9724 4.40039 16.2222 4.40039C15.7694 4.40039 15.3222 4.42502 14.8821 4.47302C18.2306 7.00983 20.4444 11.4043 20.4444 16.4004C20.4444 21.6529 17.9975 26.2404 14.3577 28.7035ZM16 32.4004C24.8366 32.4004 32 25.237 32 16.4004C32 7.56383 24.8366 0.400391 16 0.400391C7.16343 0.400391 0 7.56383 0 16.4004C0 25.237 7.16343 32.4004 16 32.4004Z" fill="url(#paint0_linear_8_18327)"/>
<defs>
<linearGradient id="paint0_linear_8_18327" x1="4.47035e-08" y1="4.47035e-08" x2="32" y2="32" gradientUnits="userSpaceOnUse">
<stop stop-color="white"/>
<stop offset="1" stop-color="white" stop-opacity="0"/>
</linearGradient>
</defs>
</svg>
