<svg width="32" height="32" viewBox="0 0 32 32" fill="none" xmlns="http://www.w3.org/2000/svg">
<path fill-rule="evenodd" clip-rule="evenodd" d="M6.42059 25.3745L11.5534 23.8862L15.9867 31.9921C15.9925 32.0026 16.0075 32.0026 16.0133 31.9921L20.4466 23.8862L25.5794 25.3745C25.5909 25.3778 25.6016 25.3671 25.5982 25.3556L24.1096 20.3244L31.9921 16.0133C32.0026 16.0075 32.0026 15.9925 31.9921 15.9867L24.0447 11.6401L25.5982 6.38927C25.6016 6.37777 25.5909 6.36709 25.5794 6.3704L20.3262 7.89364L16.0133 0.00788701C16.0075 -0.00262882 15.9925 -0.00262911 15.9867 0.00788677L11.6738 7.89364L6.42059 6.3704C6.40909 6.36709 6.3984 6.37777 6.40184 6.38927L7.95533 11.6401L0.00788702 15.9867C-0.00262882 15.9925 -0.00262911 16.0075 0.00788677 16.0133L7.89033 20.3244L6.40184 25.3556C6.3984 25.3671 6.40909 25.3778 6.42059 25.3745ZM10.4036 16.0553L14.0399 18.044L16.0287 21.6803C16.0344 21.6908 16.0495 21.6908 16.0553 21.6803L18.044 18.044L21.6803 16.0553C21.6908 16.0495 21.6908 16.0344 21.6803 16.0287L18.044 14.0399L16.0553 10.4037C16.0495 10.3931 16.0344 10.3931 16.0287 10.4037L14.0399 14.0399L10.4036 16.0287C10.3931 16.0344 10.3931 16.0495 10.4036 16.0553Z" fill="url(#paint0_linear_8_18314)"/>
<defs>
<linearGradient id="paint0_linear_8_18314" x1="0" y1="0" x2="32" y2="32" gradientUnits="userSpaceOnUse">
<stop stop-color="white"/>
<stop offset="1" stop-color="white" stop-opacity="0"/>
</linearGradient>
</defs>
</svg>
