<svg width="32" height="32" viewBox="0 0 32 32" fill="none" xmlns="http://www.w3.org/2000/svg">
<path fill-rule="evenodd" clip-rule="evenodd" d="M5.32291 2.66035C5.69894 1.13134 7.04394 0 8.64545 0C9.84673 0 10.9037 0.636544 11.5157 1.6H12.5178C13.1404 0.941975 14.0102 0.533333 14.9727 0.533333C16.3839 0.533333 17.596 1.41176 18.1214 2.66667H18.9604C19.4861 2.32866 20.1073 2.13333 20.7727 2.13333C22.184 2.13333 23.3959 3.01176 23.9214 4.26667H26.2029C26.2223 4.26667 26.2406 4.27207 26.2563 4.28151C26.3605 4.27169 26.4661 4.26667 26.5727 4.26667C28.4655 4.26667 29.9999 5.84696 29.9999 7.79637V18.3804L30 18.4L29.9999 18.4196V18.5721C29.9999 18.6366 29.9982 18.7009 29.9948 18.7649C29.7886 26.1073 23.378 32 15.5 32C7.49186 32 1 25.9111 1 18.4C1 14.7744 2.5126 11.4802 4.9782 9.04219C4.97205 12.5768 5.03002 16.2309 5.29724 16.1682C6.01276 16.0002 5.45372 5.05247 5.32291 2.66035Z" fill="url(#paint0_linear_8_18379)"/>
<defs>
<linearGradient id="paint0_linear_8_18379" x1="1" y1="0" x2="30" y2="32" gradientUnits="userSpaceOnUse">
<stop stop-color="white"/>
<stop offset="1" stop-color="white" stop-opacity="0"/>
</linearGradient>
</defs>
</svg>
