<svg width="32" height="32" viewBox="0 0 32 32" fill="none" xmlns="http://www.w3.org/2000/svg">
<path fill-rule="evenodd" clip-rule="evenodd" d="M22.0322 24.7121C22.4279 23.2664 21.6598 20.2944 21.6598 20.2944C21.6598 20.2944 21.1027 22.7156 20.2321 23.6104C19.4895 24.3738 18.5796 24.9032 17.2747 25.0423C18.3416 24.5246 19.0753 23.445 19.0753 22.1972C19.0753 20.4456 17.6295 19.0256 15.846 19.0256C14.0626 19.0256 12.6167 20.4456 12.6167 22.1972C12.6167 22.6756 12.7246 23.1293 12.9178 23.536C11.8023 22.6481 11.6269 21.2246 11.6269 21.2246C11.6269 21.2246 10.3812 26.3915 13.8134 28.822C17.2455 31.2525 23.969 29.1634 23.969 29.1634C23.969 29.1634 14.3473 35.9273 7.21762 28.5656C1.07596 22.224 5.61464 13.8752 5.61464 13.8752C5.61464 13.8752 5.41863 14.6497 5.41863 15.5488C5.41863 16.4478 5.90652 17.1319 5.90652 17.1319C5.90652 17.1319 7.36188 14.0669 8.49451 12.8205C9.56646 11.6409 10.9102 10.6841 12.0709 9.85775C12.9643 9.22163 13.7492 8.66275 14.218 8.13894C16.8001 5.2543 15.2169 0 15.2169 0C15.2169 0 18.1276 2.56375 18.9402 5.87487C19.25 7.137 19.0507 8.57307 18.8726 9.85725C18.5833 11.942 18.3495 13.6266 20.4392 13.5173C23.8161 13.3406 20.8817 8.13894 20.8817 8.13894C20.8817 8.13894 28.5417 12.1614 27.9695 19.1966C27.3971 26.2317 19.5966 27.8311 19.5966 27.8311C19.5966 27.8311 21.6364 26.1578 22.0322 24.7121Z" fill="url(#paint0_linear_8_18373)"/>
<defs>
<linearGradient id="paint0_linear_8_18373" x1="4" y1="0" x2="28" y2="32" gradientUnits="userSpaceOnUse">
<stop stop-color="white"/>
<stop offset="1" stop-color="white" stop-opacity="0"/>
</linearGradient>
</defs>
</svg>
