<svg width="32" height="32" viewBox="0 0 32 32" fill="none" xmlns="http://www.w3.org/2000/svg">
<path fill-rule="evenodd" clip-rule="evenodd" d="M11.1695 30C15.8572 30 19.8705 27.3696 21.5273 23.6409C21.5475 23.5954 14.8755 25.3915 15.0882 24.7566C15.1832 24.473 19.2732 22.9646 22.253 21.205C23.9657 20.1937 24.7544 18.0529 24.7544 18.0529C24.7544 18.0529 21.869 19.4673 20.4103 19.8261C17.4708 20.5492 14.8832 20.4714 14.8832 20.396C14.8832 20.2331 19.1798 19.4089 25.1516 15.7348C27.9605 14.0067 28.7234 11.0299 28.7234 11.0299C28.7234 11.0299 25.6352 12.8871 23.7684 13.5003C19.3411 14.9543 15.301 15.3925 15.301 15.1957C15.301 14.7745 18.8564 13.7874 22.626 11.9433C24.586 10.9844 26.2835 9.73177 28.2506 8.33869C31.4692 6.05941 32 2 32 2C32 2 28.8255 4.0672 27.2763 4.75369C20.8839 7.5864 15.2393 9.0723 11.1695 9.39399C5.02601 9.87961 0 14.2073 0 19.8261C0 25.445 5.00075 30 11.1695 30Z" fill="url(#paint0_linear_8_18384)"/>
<defs>
<linearGradient id="paint0_linear_8_18384" x1="0" y1="2" x2="32" y2="30" gradientUnits="userSpaceOnUse">
<stop stop-color="white"/>
<stop offset="1" stop-color="white" stop-opacity="0"/>
</linearGradient>
</defs>
</svg>
