<svg width="32" height="33" viewBox="0 0 32 33" fill="none" xmlns="http://www.w3.org/2000/svg">
<path fill-rule="evenodd" clip-rule="evenodd" d="M23.0595 32.2896C20.1731 32.4373 16.8685 32.4373 15.7455 32.2896C6.98562 31.1371 0 24.7325 0 16.0754C0 7.41833 7.16344 0.400391 16 0.400391C24.8366 0.400391 32 7.41833 32 16.0754C32 20.1017 30.4504 23.7735 27.9037 26.5496C27.2122 27.3034 28.1611 27.8321 29.1251 28.3694C30.0706 28.8963 31.0307 29.4314 30.4727 30.1949C29.8579 31.0362 26.5245 32.1122 23.0595 32.2896ZM13.75 14.116C13.75 15.4686 12.6307 16.5652 11.25 16.5652C9.86931 16.5652 8.75 15.4686 8.75 14.116C8.75 13.2088 9.25344 12.4169 10.0015 11.9936C10.0446 13.173 11.0143 14.116 12.2043 14.116H13.75V14.116ZM21.4985 11.9936C21.4554 13.173 20.4857 14.116 19.2957 14.116H17.75V14.116C17.75 15.4686 18.8693 16.5652 20.25 16.5652C21.6307 16.5652 22.75 15.4686 22.75 14.116C22.75 13.2088 22.2466 12.4169 21.4985 11.9936Z" fill="url(#paint0_linear_8_18315)"/>
<defs>
<linearGradient id="paint0_linear_8_18315" x1="4.47035e-08" y1="4.47035e-08" x2="32" y2="32" gradientUnits="userSpaceOnUse">
<stop stop-color="white"/>
<stop offset="1" stop-color="white" stop-opacity="0"/>
</linearGradient>
</defs>
</svg>
