<svg width="32" height="32" viewBox="0 0 32 32" fill="none" xmlns="http://www.w3.org/2000/svg">
<path fill-rule="evenodd" clip-rule="evenodd" d="M24.7075 14.83C24.7057 14.8275 24.7049 14.8244 24.7054 14.8214L26.7427 3.00941C26.7437 3.00398 26.7485 3 26.754 3H27.3987C27.4037 3 27.4081 3.00321 27.4096 3.00792L31.9995 17.4579C32.0009 17.4623 31.9993 17.4673 31.9956 17.4702L28.6114 20.0974C28.6064 20.1013 28.5991 20.1003 28.5953 20.0952L24.7075 14.83ZM0 22.6605C0 22.6654 0.00316819 22.6697 0.00785194 22.6713L6.98399 24.9393C6.98735 24.9404 6.9911 24.9398 6.99403 24.9378L22.5873 14.2338C22.5899 14.232 22.5917 14.2293 22.5921 14.2262L24.2643 3.06998C24.2654 3.06313 24.26 3.05698 24.2531 3.05698H10.4413C10.4378 3.05698 10.4347 3.05848 10.4325 3.06108L0.0026212 15.5715C0.000926831 15.5736 0 15.5761 0 15.5788V22.6605ZM9.89097 25.5171L17.5123 27.9994C17.5157 28.0006 17.5195 28 17.5224 27.9979L26.5961 21.5263C26.6011 21.5228 26.6024 21.5159 26.599 21.5108L23.1975 16.4779C23.1939 16.4726 23.1868 16.4713 23.1816 16.4749L9.89097 25.5171Z" fill="url(#paint0_linear_8_18381)"/>
<defs>
<linearGradient id="paint0_linear_8_18381" x1="0" y1="3" x2="30" y2="28" gradientUnits="userSpaceOnUse">
<stop stop-color="white"/>
<stop offset="1" stop-color="white" stop-opacity="0"/>
</linearGradient>
</defs>
</svg>
