<svg width="32" height="32" viewBox="0 0 32 32" fill="none" xmlns="http://www.w3.org/2000/svg">
<path fill-rule="evenodd" clip-rule="evenodd" d="M26 21.6582C26 27.3698 21.299 32 15.5 32C9.701 32 5 27.3698 5 21.6582C5 16.1032 14.932 0.846782 15.4767 0.0142388C15.4892 -0.00474637 15.5109 -0.0047462 15.5233 0.0142389C16.068 0.846782 26 16.1032 26 21.6582ZM13.7497 28.6845C8.42148 27.5319 9.33324 21.6966 9.33324 21.6966C9.33324 21.6966 10.7882 25.2191 14.319 26.3602C17.8497 27.5012 22.1166 25.8277 22.1166 25.8277C22.1166 25.8277 19.0779 29.837 13.7497 28.6845Z" fill="url(#paint0_linear_8_18370)"/>
<defs>
<linearGradient id="paint0_linear_8_18370" x1="5" y1="0" x2="26" y2="32" gradientUnits="userSpaceOnUse">
<stop stop-color="white"/>
<stop offset="1" stop-color="white" stop-opacity="0"/>
</linearGradient>
</defs>
</svg>
