<svg width="204" height="75" viewBox="0 0 204 75" fill="none" xmlns="http://www.w3.org/2000/svg">
<mask id="path-1-outside-1_17_17600" maskUnits="userSpaceOnUse" x="108" y="3" width="96" height="62" fill="black">
<rect fill="white" x="108" y="3" width="96" height="62"/>
<path d="M127.341 34.9074C126.438 35.0223 125.544 35.3094 124.658 35.7688C123.789 36.2281 123.042 36.7695 122.419 37.393C121.795 38.0164 121.303 38.7055 120.942 39.4602C120.598 40.1984 120.425 40.9285 120.425 41.6504C120.425 43.1434 121.131 44.3574 122.542 45.2926C123.789 46.1293 125.052 46.5477 126.332 46.5477C126.578 46.5477 126.914 46.5148 127.341 46.4492V41.2074C126.898 41.2074 126.504 41.0926 126.159 40.8629C125.667 40.4691 125.421 39.7145 125.421 38.5988C125.421 36.991 126.061 35.7605 127.341 34.9074ZM127.119 11.0117L137.406 6.38516L138.021 39.7063C138.152 40.5594 138.218 41.5273 138.218 42.6102C138.218 43.5617 138.185 44.2672 138.12 44.7266L138.415 59.8121L127.341 60.4027V58.9016C125.536 59.6398 123.715 60.009 121.877 60.009C120.466 60.009 119.137 59.7957 117.891 59.3691C116.66 58.9426 115.594 58.3684 114.691 57.6465C113.231 56.4324 112.091 54.8 111.271 52.7492C110.45 50.682 110.04 48.5 110.04 46.2031C110.04 42.2492 111.18 39.0582 113.461 36.6301C115.43 34.5629 117.456 32.9961 119.539 31.9297C121.639 30.8633 123.78 30.3301 125.962 30.3301C126.57 30.3301 127.029 30.3465 127.341 30.3793L127.119 11.0117ZM158.89 45.391L164.821 52.5523C164.345 53.9305 163.213 55.1938 161.425 56.3422C159.653 57.4906 157.536 58.393 155.075 59.0492C152.631 59.7219 150.186 60.0582 147.742 60.0582C145.576 60.0582 143.64 59.7711 141.934 59.1969C140.244 58.6227 138.94 57.7531 138.021 56.5883C136.43 54.5867 135.634 52.0273 135.634 48.9102C135.634 46.4492 136.077 44.0293 136.963 41.6504C137.865 39.2551 138.817 37.5816 139.818 36.6301C141.015 35.498 142.311 34.5547 143.706 33.8C145.117 33.0453 146.577 32.4793 148.086 32.102C149.596 31.7246 151.146 31.5359 152.737 31.5359C154.821 31.5359 156.798 31.8723 158.668 32.5449C160.555 33.2012 162.204 34.1609 163.615 35.4242L150.104 51.5434C151.302 51.5434 152.434 51.2973 153.5 50.8051C154.583 50.2965 155.576 49.5828 156.478 48.6641C157.38 47.7289 158.184 46.6379 158.89 45.391ZM152.073 39.657C151.269 39.2469 150.449 39.0418 149.612 39.0418C148.726 39.0418 147.865 39.2223 147.028 39.5832C146.208 39.9441 145.625 40.3707 145.281 40.8629C144.264 42.1754 143.755 43.6191 143.755 45.1941C143.755 45.7684 143.812 46.318 143.927 46.843C144.042 47.368 144.239 48.0898 144.518 49.0086L152.073 39.657ZM179.045 54.3242L173.089 62.027L160.391 62.4207L172.696 46.1539L158.791 28.1645L172.277 28.7551L179.045 37.6883L185.788 28.7551L199.298 28.1645L185.394 46.1539L197.699 62.4207L184.976 62.027L179.045 54.3242Z"/>
</mask>
<path d="M127.341 34.9074C126.438 35.0223 125.544 35.3094 124.658 35.7688C123.789 36.2281 123.042 36.7695 122.419 37.393C121.795 38.0164 121.303 38.7055 120.942 39.4602C120.598 40.1984 120.425 40.9285 120.425 41.6504C120.425 43.1434 121.131 44.3574 122.542 45.2926C123.789 46.1293 125.052 46.5477 126.332 46.5477C126.578 46.5477 126.914 46.5148 127.341 46.4492V41.2074C126.898 41.2074 126.504 41.0926 126.159 40.8629C125.667 40.4691 125.421 39.7145 125.421 38.5988C125.421 36.991 126.061 35.7605 127.341 34.9074ZM127.119 11.0117L137.406 6.38516L138.021 39.7063C138.152 40.5594 138.218 41.5273 138.218 42.6102C138.218 43.5617 138.185 44.2672 138.12 44.7266L138.415 59.8121L127.341 60.4027V58.9016C125.536 59.6398 123.715 60.009 121.877 60.009C120.466 60.009 119.137 59.7957 117.891 59.3691C116.66 58.9426 115.594 58.3684 114.691 57.6465C113.231 56.4324 112.091 54.8 111.271 52.7492C110.45 50.682 110.04 48.5 110.04 46.2031C110.04 42.2492 111.18 39.0582 113.461 36.6301C115.43 34.5629 117.456 32.9961 119.539 31.9297C121.639 30.8633 123.78 30.3301 125.962 30.3301C126.57 30.3301 127.029 30.3465 127.341 30.3793L127.119 11.0117ZM158.89 45.391L164.821 52.5523C164.345 53.9305 163.213 55.1938 161.425 56.3422C159.653 57.4906 157.536 58.393 155.075 59.0492C152.631 59.7219 150.186 60.0582 147.742 60.0582C145.576 60.0582 143.64 59.7711 141.934 59.1969C140.244 58.6227 138.94 57.7531 138.021 56.5883C136.43 54.5867 135.634 52.0273 135.634 48.9102C135.634 46.4492 136.077 44.0293 136.963 41.6504C137.865 39.2551 138.817 37.5816 139.818 36.6301C141.015 35.498 142.311 34.5547 143.706 33.8C145.117 33.0453 146.577 32.4793 148.086 32.102C149.596 31.7246 151.146 31.5359 152.737 31.5359C154.821 31.5359 156.798 31.8723 158.668 32.5449C160.555 33.2012 162.204 34.1609 163.615 35.4242L150.104 51.5434C151.302 51.5434 152.434 51.2973 153.5 50.8051C154.583 50.2965 155.576 49.5828 156.478 48.6641C157.38 47.7289 158.184 46.6379 158.89 45.391ZM152.073 39.657C151.269 39.2469 150.449 39.0418 149.612 39.0418C148.726 39.0418 147.865 39.2223 147.028 39.5832C146.208 39.9441 145.625 40.3707 145.281 40.8629C144.264 42.1754 143.755 43.6191 143.755 45.1941C143.755 45.7684 143.812 46.318 143.927 46.843C144.042 47.368 144.239 48.0898 144.518 49.0086L152.073 39.657ZM179.045 54.3242L173.089 62.027L160.391 62.4207L172.696 46.1539L158.791 28.1645L172.277 28.7551L179.045 37.6883L185.788 28.7551L199.298 28.1645L185.394 46.1539L197.699 62.4207L184.976 62.027L179.045 54.3242Z" fill="#CD3131"/>
<path d="M127.341 34.9074L128.45 36.5715L127.088 32.9234L127.341 34.9074ZM124.658 35.7688L123.738 33.9932L123.731 33.9968L123.724 34.0004L124.658 35.7688ZM120.942 39.4602L119.138 38.5972L119.134 38.6058L119.13 38.6144L120.942 39.4602ZM122.542 45.2926L123.656 43.6318L123.647 43.6255L122.542 45.2926ZM127.341 46.4492L127.645 48.426L129.341 48.1651V46.4492H127.341ZM127.341 41.2074H129.341V39.2074H127.341V41.2074ZM126.159 40.8629L124.91 42.4246L124.978 42.4788L125.05 42.527L126.159 40.8629ZM127.119 11.0117L126.299 9.18771L125.104 9.72494L125.119 11.0346L127.119 11.0117ZM137.406 6.38516L139.406 6.34824L139.35 3.31798L136.585 4.56115L137.406 6.38516ZM138.021 39.7063L136.021 39.7432L136.024 39.8775L136.044 40.0104L138.021 39.7063ZM138.12 44.7266L136.14 44.4437L136.117 44.6039L136.12 44.7657L138.12 44.7266ZM138.415 59.8121L138.521 61.8093L140.452 61.7063L140.414 59.773L138.415 59.8121ZM127.341 60.4027H125.341V62.5122L127.447 62.3999L127.341 60.4027ZM127.341 58.9016H129.341V55.9225L126.583 57.0505L127.341 58.9016ZM117.891 59.3691L117.236 61.2588L117.243 61.2615L117.891 59.3691ZM114.691 57.6465L113.413 59.1843L113.427 59.1964L113.442 59.2082L114.691 57.6465ZM111.271 52.7492L109.412 53.4869L109.414 53.492L111.271 52.7492ZM113.461 36.6301L112.013 35.2507L112.003 35.2609L113.461 36.6301ZM119.539 31.9297L118.634 30.1464L118.628 30.1493L119.539 31.9297ZM127.341 30.3793L127.131 32.3683L129.366 32.6036L129.34 30.3564L127.341 30.3793ZM127.088 32.9234C125.931 33.0707 124.812 33.4361 123.738 33.9932L125.579 37.5443C126.276 37.1826 126.946 36.9738 127.593 36.8914L127.088 32.9234ZM123.724 34.0004C122.698 34.5425 121.785 35.1987 121.005 35.9788L123.833 38.8072C124.3 38.3404 124.88 37.9138 125.592 37.5371L123.724 34.0004ZM121.005 35.9788C120.229 36.7538 119.602 37.6272 119.138 38.5972L122.746 40.3231C123.004 39.7838 123.361 39.279 123.833 38.8072L121.005 35.9788ZM119.13 38.6144C118.678 39.5833 118.425 40.6008 118.425 41.6504H122.425C122.425 41.2563 122.518 40.8136 122.755 40.3059L119.13 38.6144ZM118.425 41.6504C118.425 43.9126 119.554 45.712 121.437 46.9597L123.647 43.6255C122.707 43.0028 122.425 42.3741 122.425 41.6504H118.425ZM121.427 46.9533C122.945 47.972 124.59 48.5477 126.332 48.5477V44.5477C125.514 44.5477 124.632 44.2866 123.656 43.6318L121.427 46.9533ZM126.332 48.5477C126.728 48.5477 127.18 48.4974 127.645 48.426L127.037 44.4725C126.648 44.5323 126.428 44.5477 126.332 44.5477V48.5477ZM129.341 46.4492V41.2074H125.341V46.4492H129.341ZM127.341 39.2074C127.294 39.2074 127.274 39.2016 127.273 39.2013C127.272 39.2009 127.272 39.2009 127.273 39.2013C127.273 39.2016 127.272 39.2011 127.269 39.1988L125.05 42.527C125.746 42.9912 126.532 43.2074 127.341 43.2074V39.2074ZM127.409 39.3012C127.537 39.4041 127.541 39.4841 127.507 39.3815C127.47 39.2673 127.421 39.0245 127.421 38.5988H123.421C123.421 39.876 123.68 41.4404 124.91 42.4246L127.409 39.3012ZM127.421 38.5988C127.421 37.6234 127.756 37.034 128.45 36.5715L126.231 33.2433C124.366 34.4871 123.421 36.3586 123.421 38.5988H127.421ZM127.94 12.8357L138.226 8.20916L136.585 4.56115L126.299 9.18771L127.94 12.8357ZM135.406 6.42208L136.021 39.7432L140.021 39.6693L139.406 6.34824L135.406 6.42208ZM136.044 40.0104C136.157 40.7413 136.218 41.6048 136.218 42.6102H140.218C140.218 41.4499 140.148 40.3774 139.998 39.4021L136.044 40.0104ZM136.218 42.6102C136.218 43.5438 136.184 44.1316 136.14 44.4437L140.099 45.0094C140.186 44.4027 140.218 43.5797 140.218 42.6102H136.218ZM136.12 44.7657L136.415 59.8513L140.414 59.773L140.119 44.6874L136.12 44.7657ZM138.308 57.8149L127.234 58.4056L127.447 62.3999L138.521 61.8093L138.308 57.8149ZM129.341 60.4027V58.9016H125.341V60.4027H129.341ZM126.583 57.0505C125.004 57.6965 123.44 58.009 121.877 58.009V62.009C123.99 62.009 126.068 61.5832 128.098 60.7527L126.583 57.0505ZM121.877 58.009C120.671 58.009 119.562 57.8272 118.538 57.4768L117.243 61.2615C118.713 61.7642 120.262 62.009 121.877 62.009V58.009ZM118.546 57.4795C117.504 57.1182 116.644 56.6474 115.941 56.0847L113.442 59.2082C114.543 60.0893 115.817 60.767 117.236 61.2588L118.546 57.4795ZM115.97 56.1086C114.805 55.1397 113.845 53.7989 113.128 52.0064L109.414 53.492C110.337 55.8011 111.658 57.7251 113.413 59.1843L115.97 56.1086ZM113.13 52.0115C112.406 50.1868 112.04 48.2558 112.04 46.2031H108.04C108.04 48.7442 108.495 51.1772 109.412 53.4869L113.13 52.0115ZM112.04 46.2031C112.04 42.6568 113.05 39.9889 114.919 37.9993L112.003 35.2609C109.311 38.1276 108.04 41.8417 108.04 46.2031H112.04ZM114.909 38.0094C116.756 36.0706 118.606 34.6542 120.451 33.7101L118.628 30.1493C116.306 31.3379 114.104 33.0552 112.013 35.2508L114.909 38.0094ZM120.445 33.7129C122.287 32.7775 124.12 32.3301 125.962 32.3301V28.3301C123.441 28.3301 120.992 28.9491 118.634 30.1464L120.445 33.7129ZM125.962 32.3301C126.551 32.3301 126.926 32.3468 127.131 32.3683L127.55 28.3903C127.131 28.3462 126.588 28.3301 125.962 28.3301V32.3301ZM129.34 30.3564L129.119 10.9889L125.119 11.0346L125.341 30.4022L129.34 30.3564ZM158.89 45.391L160.43 44.1153L158.579 41.8796L157.149 44.4061L158.89 45.391ZM164.821 52.5523L166.711 53.205L167.078 52.1424L166.361 51.2767L164.821 52.5523ZM161.425 56.3422L160.344 54.6593L160.337 54.6639L161.425 56.3422ZM155.075 59.0492L154.56 57.1167L154.552 57.1188L154.545 57.1209L155.075 59.0492ZM141.934 59.1969L141.291 61.0905L141.296 61.0924L141.934 59.1969ZM138.021 56.5883L139.591 55.3497L139.587 55.3436L138.021 56.5883ZM136.963 41.6504L135.091 40.9453L135.089 40.9524L136.963 41.6504ZM139.818 36.6301L138.444 35.1766L138.439 35.1807L139.818 36.6301ZM143.706 33.8L142.763 32.0364L142.754 32.0411L143.706 33.8ZM158.668 32.5449L157.992 34.4269L158.001 34.4305L158.011 34.4339L158.668 32.5449ZM163.615 35.4242L165.148 36.709L166.391 35.2254L164.949 33.9342L163.615 35.4242ZM150.104 51.5434L148.572 50.2586L145.818 53.5434H150.104V51.5434ZM153.5 50.8051L154.339 52.621L154.351 52.6153L153.5 50.8051ZM156.478 48.6641L157.905 50.0655L157.911 50.0592L157.917 50.0528L156.478 48.6641ZM152.073 39.657L153.629 40.9139L155.178 38.996L152.982 37.8755L152.073 39.657ZM147.028 39.5832L146.236 37.7468L146.229 37.7497L146.223 37.7526L147.028 39.5832ZM145.281 40.8629L146.862 42.088L146.891 42.0496L146.919 42.0098L145.281 40.8629ZM144.518 49.0086L142.604 49.5896L143.701 53.2024L146.074 50.2655L144.518 49.0086ZM157.35 46.6667L163.28 53.828L166.361 51.2767L160.43 44.1153L157.35 46.6667ZM162.93 51.8997C162.655 52.6973 161.921 53.6462 160.344 54.6593L162.505 58.025C164.504 56.7413 166.035 55.1637 166.711 53.205L162.93 51.8997ZM160.337 54.6639C158.773 55.6773 156.858 56.5038 154.56 57.1167L155.591 60.9817C158.214 60.2821 160.532 59.3039 162.512 58.0205L160.337 54.6639ZM154.545 57.1209C152.267 57.7478 150 58.0582 147.742 58.0582V62.0582C150.372 62.0582 152.995 61.696 155.606 60.9775L154.545 57.1209ZM147.742 58.0582C145.75 58.0582 144.036 57.794 142.572 57.3013L141.296 61.0924C143.245 61.7482 145.402 62.0582 147.742 62.0582V58.0582ZM142.577 57.3032C141.178 56.8278 140.226 56.1545 139.591 55.3497L136.451 57.8269C137.654 59.3518 139.31 60.4175 141.291 61.0905L142.577 57.3032ZM139.587 55.3436C138.334 53.7683 137.634 51.6773 137.634 48.9102H133.634C133.634 52.3774 134.525 55.4052 136.456 57.833L139.587 55.3436ZM137.634 48.9102C137.634 46.695 138.032 44.5111 138.837 42.3484L135.089 40.9524C134.122 43.5475 133.634 46.2034 133.634 48.9102H137.634ZM138.834 42.3554C139.706 40.0411 140.529 38.7137 141.196 38.0795L138.439 35.1807C137.105 36.4496 136.024 38.469 135.091 40.9453L138.834 42.3554ZM141.191 38.0836C142.267 37.0666 143.423 36.2274 144.658 35.5589L142.754 32.0411C141.2 32.8819 139.763 33.9295 138.444 35.1766L141.191 38.0836ZM144.649 35.5636C145.919 34.8842 147.226 34.3786 148.571 34.0422L147.601 30.1617C145.928 30.58 144.314 31.2065 142.763 32.0364L144.649 35.5636ZM148.571 34.0422C149.919 33.7055 151.306 33.5359 152.737 33.5359V29.5359C150.986 29.5359 149.273 29.7438 147.601 30.1617L148.571 34.0422ZM152.737 33.5359C154.602 33.5359 156.349 33.8361 157.992 34.4269L159.345 30.6629C157.247 29.9085 155.041 29.5359 152.737 29.5359V33.5359ZM158.011 34.4339C159.662 35.0081 161.078 35.837 162.281 36.9142L164.949 33.9342C163.33 32.4849 161.448 31.3942 159.325 30.6559L158.011 34.4339ZM162.082 34.1395L148.572 50.2586L151.637 52.8281L165.148 36.709L162.082 34.1395ZM150.104 53.5434C151.585 53.5434 153.004 53.2369 154.339 52.621L152.662 48.9892C151.864 49.3576 151.018 49.5434 150.104 49.5434V53.5434ZM154.351 52.6153C155.664 51.9983 156.849 51.1407 157.905 50.0655L155.051 47.2626C154.303 48.025 153.502 48.5947 152.65 48.9948L154.351 52.6153ZM157.917 50.0528C158.948 48.9846 159.85 47.7547 160.631 46.3759L157.149 44.4061C156.518 45.5211 155.813 46.4732 155.039 47.2753L157.917 50.0528ZM152.982 37.8755C151.919 37.3333 150.789 37.0418 149.612 37.0418V41.0418C150.108 41.0418 150.619 41.1605 151.164 41.4386L152.982 37.8755ZM149.612 37.0418C148.446 37.0418 147.316 37.2811 146.236 37.7468L147.82 41.4196C148.414 41.1634 149.006 41.0418 149.612 41.0418V37.0418ZM146.223 37.7526C145.221 38.1934 144.276 38.8112 143.642 39.716L146.919 42.0098C146.975 41.9302 147.195 41.6949 147.834 41.4138L146.223 37.7526ZM143.7 39.6377C142.427 41.2804 141.755 43.1504 141.755 45.1941H145.755C145.755 44.0879 146.1 43.0703 146.862 42.088L143.7 39.6377ZM141.755 45.1941C141.755 45.9023 141.826 46.5957 141.974 47.2704L145.881 46.4156C145.799 46.0402 145.755 45.6344 145.755 45.1941H141.755ZM141.974 47.2704C142.105 47.8722 142.32 48.6528 142.604 49.5896L146.432 48.4276C146.158 47.5269 145.979 46.8638 145.881 46.4156L141.974 47.2704ZM146.074 50.2655L153.629 40.9139L150.517 38.4002L142.962 47.7517L146.074 50.2655ZM179.045 54.3242L180.63 53.1041L179.048 51.0502L177.463 53.1009L179.045 54.3242ZM173.089 62.027L173.151 64.026L174.095 63.9967L174.672 63.2503L173.089 62.027ZM160.391 62.4207L158.796 61.2141L156.273 64.5494L160.453 64.4197L160.391 62.4207ZM172.696 46.1539L174.291 47.3605L175.213 46.1408L174.278 44.9308L172.696 46.1539ZM158.791 28.1645L158.879 26.1664L154.574 25.9778L157.209 29.3875L158.791 28.1645ZM172.277 28.7551L173.872 27.5474L173.304 26.7981L172.365 26.757L172.277 28.7551ZM179.045 37.6883L177.451 38.896L179.048 41.0042L180.641 38.8932L179.045 37.6883ZM185.788 28.7551L185.701 26.757L184.759 26.7981L184.192 27.5502L185.788 28.7551ZM199.298 28.1645L200.881 29.3875L203.516 25.9782L199.211 26.1664L199.298 28.1645ZM185.394 46.1539L183.812 44.9308L182.876 46.1408L183.799 47.3605L185.394 46.1539ZM197.699 62.4207L197.637 64.4197L201.817 64.5491L199.294 61.2141L197.699 62.4207ZM184.976 62.027L183.391 63.2471L183.968 63.9967L184.914 64.026L184.976 62.027ZM177.463 53.1009L171.507 60.8036L174.672 63.2503L180.627 55.5475L177.463 53.1009ZM173.027 60.0279L160.329 60.4217L160.453 64.4197L173.151 64.026L173.027 60.0279ZM161.986 63.6273L174.291 47.3605L171.101 44.9474L158.796 61.2141L161.986 63.6273ZM174.278 44.9308L160.374 26.9414L157.209 29.3875L171.113 47.377L174.278 44.9308ZM158.704 30.1625L172.19 30.7532L172.365 26.757L158.879 26.1664L158.704 30.1625ZM170.683 29.9628L177.451 38.896L180.639 36.4806L173.872 27.5474L170.683 29.9628ZM180.641 38.8932L187.384 29.96L184.192 27.5502L177.449 36.4834L180.641 38.8932ZM185.875 30.7532L199.386 30.1625L199.211 26.1664L185.701 26.757L185.875 30.7532ZM197.716 26.9414L183.812 44.9308L186.977 47.377L200.881 29.3875L197.716 26.9414ZM183.799 47.3605L196.104 63.6273L199.294 61.2141L186.989 44.9474L183.799 47.3605ZM197.761 60.4217L185.038 60.0279L184.914 64.026L197.637 64.4197L197.761 60.4217ZM186.56 60.8068L180.63 53.1041L177.46 55.5444L183.391 63.2471L186.56 60.8068Z" fill="black" mask="url(#path-1-outside-1_17_17600)"/>
<mask id="path-3-outside-2_17_17600" maskUnits="userSpaceOnUse" x="0" y="9" width="117" height="63" fill="black">
<rect fill="white" y="9" width="117" height="63"/>
<path d="M2.98203 19.8957C4.96719 19.2395 6.8293 18.6324 8.56836 18.0746C10.3238 17.5168 12.1695 16.9918 14.1055 16.4996C16.0414 15.991 17.8953 15.5891 19.6672 15.2938C21.0289 15.0641 22.4234 14.9492 23.8508 14.9492C26.2297 14.9492 27.7883 15.0148 28.5266 15.1461C29.6422 15.3594 30.6922 15.7039 31.6766 16.1797C32.6773 16.6555 33.5633 17.2953 34.3344 18.0992C35.1219 18.8867 35.7617 19.8219 36.2539 20.9047C36.4508 21.3477 36.5492 21.8152 36.5492 22.3074C36.5492 24.1449 35.5402 26.409 33.5223 29.0996C31.5207 31.7902 29.5027 34.1363 27.4684 36.1379C25.4504 38.1395 23.941 39.575 22.9402 40.4445L27.3699 55.973L20.9223 60.6242L9.62656 28.3613C9.59375 28.3613 9.43789 28.5172 9.15898 28.8289C8.88008 29.1406 8.51094 29.5508 8.05156 30.0594C7.60859 30.5516 7.32969 30.8551 7.21484 30.9699C7.16562 30.9699 7.00156 30.6172 6.72266 29.9117C6.46016 29.2063 6.09922 28.2301 5.63984 26.9832C5.19687 25.7199 4.69648 24.3254 4.13867 22.7996C3.56445 21.2574 3.17891 20.2895 2.98203 19.8957ZM18.9043 26.7371L20.9223 33.9969C21.9395 32.9633 23.2027 31.5523 24.7121 29.7641C26.2215 27.9758 26.9762 26.6797 26.9762 25.8758C26.9762 25.5641 26.8449 25.3836 26.5824 25.3344C25.8441 25.1703 25.1141 25.0883 24.3922 25.0883C22.2266 25.0883 20.3973 25.6379 18.9043 26.7371ZM55.0309 32.348C56.1957 32.9715 57.1391 33.8164 57.8609 34.8828C58.5992 35.9328 59.1324 37.1223 59.4605 38.4512C59.8051 39.7637 59.9773 41.1336 59.9773 42.5609C59.9773 43.7422 59.8789 44.8824 59.682 45.9816C59.5016 47.0809 59.2473 48.0898 58.9191 49.0086C58.591 49.9273 58.2055 50.7066 57.7625 51.3465C56.7289 52.8887 55.6215 54.2176 54.4402 55.3332C53.259 56.4488 52.0531 57.3512 50.8227 58.0402C49.5922 58.7129 48.3699 59.2051 47.1559 59.5168C45.9582 59.8449 44.7687 60.009 43.5875 60.009C42.193 60.009 40.8641 59.7875 39.6008 59.3445C38.3539 58.918 37.2875 58.352 36.4016 57.6465C34.9414 56.4324 33.8012 54.8 32.9809 52.7492C32.1605 50.682 31.7504 48.5 31.7504 46.2031C31.7504 42.2492 32.8906 39.0582 35.1711 36.6301C37.1234 34.5465 39.1414 32.9797 41.225 31.9297C43.3086 30.8633 45.4414 30.3301 47.6234 30.3301C48.9031 30.3301 50.1336 30.4941 51.3148 30.8223C52.4961 31.134 53.7348 31.6426 55.0309 32.348ZM53.5789 36.4824C53.3 37.7293 52.693 38.8285 51.7578 39.7801C50.8391 40.7316 49.9367 41.2074 49.0508 41.2074C48.6078 41.2074 48.2141 41.0926 47.8695 40.8629C47.3773 40.4691 47.1312 39.7801 47.1312 38.7957C47.1312 38.041 47.3773 37.2945 47.8695 36.5563C48.3781 35.818 49.1738 35.2355 50.2566 34.809C49.1738 34.809 48.1238 35.0141 47.1066 35.4242C46.1059 35.8344 45.2445 36.3676 44.5227 37.0238C43.8008 37.6637 43.2184 38.3938 42.7754 39.2141C42.3488 40.018 42.1355 40.8301 42.1355 41.6504C42.1355 43.1762 42.841 44.3902 44.252 45.2926C45.5645 46.1293 46.8113 46.5477 47.9926 46.5477C49.1574 46.5477 50.191 46.1621 51.0934 45.391C51.9957 44.6035 52.6848 43.6027 53.1605 42.3887C53.6363 41.1582 53.8742 39.9441 53.8742 38.7465C53.8742 37.9262 53.7758 37.1715 53.5789 36.4824ZM55.8922 17.8777L68.3937 12.6359L70.2148 41.0598L80.5016 35.4242L91.182 37.0238L77.2531 47.7043L90.3699 57.5973L90.9605 67.4656L71.6176 53.5613L72.2328 65.6445L60.5187 65.866L58.3039 23.1195L54.6863 23.9316L55.8922 17.8777ZM108.31 45.391L114.241 52.5523C113.765 53.9305 112.633 55.1938 110.845 56.3422C109.073 57.4906 106.957 58.393 104.496 59.0492C102.051 59.7219 99.6066 60.0582 97.1621 60.0582C94.9965 60.0582 93.0605 59.7711 91.3543 59.1969C89.6644 58.6227 88.3602 57.7531 87.4414 56.5883C85.85 54.5867 85.0543 52.0273 85.0543 48.9102C85.0543 46.4492 85.4973 44.0293 86.3832 41.6504C87.2855 39.2551 88.2371 37.5816 89.2379 36.6301C90.4355 35.498 91.7316 34.5547 93.1262 33.8C94.5371 33.0453 95.9973 32.4793 97.5066 32.102C99.016 31.7246 100.566 31.5359 102.158 31.5359C104.241 31.5359 106.218 31.8723 108.089 32.5449C109.975 33.2012 111.624 34.1609 113.035 35.4242L99.5246 51.5434C100.722 51.5434 101.854 51.2973 102.921 50.8051C104.004 50.2965 104.996 49.5828 105.898 48.6641C106.801 47.7289 107.605 46.6379 108.31 45.391ZM101.493 39.657C100.689 39.2469 99.8691 39.0418 99.0324 39.0418C98.1465 39.0418 97.2852 39.2223 96.4484 39.5832C95.6281 39.9441 95.0457 40.3707 94.7012 40.8629C93.684 42.1754 93.1754 43.6191 93.1754 45.1941C93.1754 45.7684 93.2328 46.318 93.3477 46.843C93.4625 47.368 93.6594 48.0898 93.9383 49.0086L101.493 39.657ZM88.8441 21.9137L101.961 14.6539L107.596 23.3164L91.6742 26.3434L88.8441 21.9137Z"/>
</mask>
<path d="M2.98203 19.8957C4.96719 19.2395 6.8293 18.6324 8.56836 18.0746C10.3238 17.5168 12.1695 16.9918 14.1055 16.4996C16.0414 15.991 17.8953 15.5891 19.6672 15.2938C21.0289 15.0641 22.4234 14.9492 23.8508 14.9492C26.2297 14.9492 27.7883 15.0148 28.5266 15.1461C29.6422 15.3594 30.6922 15.7039 31.6766 16.1797C32.6773 16.6555 33.5633 17.2953 34.3344 18.0992C35.1219 18.8867 35.7617 19.8219 36.2539 20.9047C36.4508 21.3477 36.5492 21.8152 36.5492 22.3074C36.5492 24.1449 35.5402 26.409 33.5223 29.0996C31.5207 31.7902 29.5027 34.1363 27.4684 36.1379C25.4504 38.1395 23.941 39.575 22.9402 40.4445L27.3699 55.973L20.9223 60.6242L9.62656 28.3613C9.59375 28.3613 9.43789 28.5172 9.15898 28.8289C8.88008 29.1406 8.51094 29.5508 8.05156 30.0594C7.60859 30.5516 7.32969 30.8551 7.21484 30.9699C7.16562 30.9699 7.00156 30.6172 6.72266 29.9117C6.46016 29.2063 6.09922 28.2301 5.63984 26.9832C5.19687 25.7199 4.69648 24.3254 4.13867 22.7996C3.56445 21.2574 3.17891 20.2895 2.98203 19.8957ZM18.9043 26.7371L20.9223 33.9969C21.9395 32.9633 23.2027 31.5523 24.7121 29.7641C26.2215 27.9758 26.9762 26.6797 26.9762 25.8758C26.9762 25.5641 26.8449 25.3836 26.5824 25.3344C25.8441 25.1703 25.1141 25.0883 24.3922 25.0883C22.2266 25.0883 20.3973 25.6379 18.9043 26.7371ZM55.0309 32.348C56.1957 32.9715 57.1391 33.8164 57.8609 34.8828C58.5992 35.9328 59.1324 37.1223 59.4605 38.4512C59.8051 39.7637 59.9773 41.1336 59.9773 42.5609C59.9773 43.7422 59.8789 44.8824 59.682 45.9816C59.5016 47.0809 59.2473 48.0898 58.9191 49.0086C58.591 49.9273 58.2055 50.7066 57.7625 51.3465C56.7289 52.8887 55.6215 54.2176 54.4402 55.3332C53.259 56.4488 52.0531 57.3512 50.8227 58.0402C49.5922 58.7129 48.3699 59.2051 47.1559 59.5168C45.9582 59.8449 44.7687 60.009 43.5875 60.009C42.193 60.009 40.8641 59.7875 39.6008 59.3445C38.3539 58.918 37.2875 58.352 36.4016 57.6465C34.9414 56.4324 33.8012 54.8 32.9809 52.7492C32.1605 50.682 31.7504 48.5 31.7504 46.2031C31.7504 42.2492 32.8906 39.0582 35.1711 36.6301C37.1234 34.5465 39.1414 32.9797 41.225 31.9297C43.3086 30.8633 45.4414 30.3301 47.6234 30.3301C48.9031 30.3301 50.1336 30.4941 51.3148 30.8223C52.4961 31.134 53.7348 31.6426 55.0309 32.348ZM53.5789 36.4824C53.3 37.7293 52.693 38.8285 51.7578 39.7801C50.8391 40.7316 49.9367 41.2074 49.0508 41.2074C48.6078 41.2074 48.2141 41.0926 47.8695 40.8629C47.3773 40.4691 47.1312 39.7801 47.1312 38.7957C47.1312 38.041 47.3773 37.2945 47.8695 36.5563C48.3781 35.818 49.1738 35.2355 50.2566 34.809C49.1738 34.809 48.1238 35.0141 47.1066 35.4242C46.1059 35.8344 45.2445 36.3676 44.5227 37.0238C43.8008 37.6637 43.2184 38.3938 42.7754 39.2141C42.3488 40.018 42.1355 40.8301 42.1355 41.6504C42.1355 43.1762 42.841 44.3902 44.252 45.2926C45.5645 46.1293 46.8113 46.5477 47.9926 46.5477C49.1574 46.5477 50.191 46.1621 51.0934 45.391C51.9957 44.6035 52.6848 43.6027 53.1605 42.3887C53.6363 41.1582 53.8742 39.9441 53.8742 38.7465C53.8742 37.9262 53.7758 37.1715 53.5789 36.4824ZM55.8922 17.8777L68.3937 12.6359L70.2148 41.0598L80.5016 35.4242L91.182 37.0238L77.2531 47.7043L90.3699 57.5973L90.9605 67.4656L71.6176 53.5613L72.2328 65.6445L60.5187 65.866L58.3039 23.1195L54.6863 23.9316L55.8922 17.8777ZM108.31 45.391L114.241 52.5523C113.765 53.9305 112.633 55.1938 110.845 56.3422C109.073 57.4906 106.957 58.393 104.496 59.0492C102.051 59.7219 99.6066 60.0582 97.1621 60.0582C94.9965 60.0582 93.0605 59.7711 91.3543 59.1969C89.6644 58.6227 88.3602 57.7531 87.4414 56.5883C85.85 54.5867 85.0543 52.0273 85.0543 48.9102C85.0543 46.4492 85.4973 44.0293 86.3832 41.6504C87.2855 39.2551 88.2371 37.5816 89.2379 36.6301C90.4355 35.498 91.7316 34.5547 93.1262 33.8C94.5371 33.0453 95.9973 32.4793 97.5066 32.102C99.016 31.7246 100.566 31.5359 102.158 31.5359C104.241 31.5359 106.218 31.8723 108.089 32.5449C109.975 33.2012 111.624 34.1609 113.035 35.4242L99.5246 51.5434C100.722 51.5434 101.854 51.2973 102.921 50.8051C104.004 50.2965 104.996 49.5828 105.898 48.6641C106.801 47.7289 107.605 46.6379 108.31 45.391ZM101.493 39.657C100.689 39.2469 99.8691 39.0418 99.0324 39.0418C98.1465 39.0418 97.2852 39.2223 96.4484 39.5832C95.6281 39.9441 95.0457 40.3707 94.7012 40.8629C93.684 42.1754 93.1754 43.6191 93.1754 45.1941C93.1754 45.7684 93.2328 46.318 93.3477 46.843C93.4625 47.368 93.6594 48.0898 93.9383 49.0086L101.493 39.657ZM88.8441 21.9137L101.961 14.6539L107.596 23.3164L91.6742 26.3434L88.8441 21.9137Z" fill="white"/>
<path d="M2.98203 19.8957L2.35429 17.9968L0.159305 18.7224L1.19318 20.7901L2.98203 19.8957ZM8.56836 18.0746L7.96268 16.1685L7.9575 16.1702L8.56836 18.0746ZM14.1055 16.4996L14.5983 18.4379L14.606 18.436L14.6136 18.434L14.1055 16.4996ZM19.6672 15.2938L19.996 17.2665L19.9998 17.2659L19.6672 15.2938ZM28.5266 15.1461L28.9021 13.1817L28.8894 13.1792L28.8766 13.177L28.5266 15.1461ZM31.6766 16.1797L30.8062 17.9804L30.8178 17.986L31.6766 16.1797ZM34.3344 18.0992L32.891 19.4837L32.9054 19.4987L32.9202 19.5134L34.3344 18.0992ZM36.2539 20.9047L38.0815 20.0924L38.0781 20.0847L38.0746 20.0771L36.2539 20.9047ZM33.5223 29.0996L31.9223 27.8996L31.9176 27.9059L33.5223 29.0996ZM27.4684 36.1379L26.0657 34.7122L26.0599 34.7179L27.4684 36.1379ZM22.9402 40.4445L21.6285 38.9348L20.6679 39.7694L21.017 40.9932L22.9402 40.4445ZM27.3699 55.973L28.54 57.5951L29.6782 56.774L29.2932 55.4244L27.3699 55.973ZM20.9223 60.6242L19.0346 61.2851L19.9198 63.8134L22.0923 62.2462L20.9223 60.6242ZM9.62656 28.3613L11.5142 27.7004L11.0454 26.3613H9.62656V28.3613ZM8.05156 30.0594L6.56735 28.7188L6.56497 28.7214L8.05156 30.0594ZM7.21484 30.9699V32.9699H8.04327L8.62906 32.3841L7.21484 30.9699ZM6.72266 29.9117L4.84821 30.6092L4.85528 30.6282L4.86273 30.647L6.72266 29.9117ZM5.63984 26.9832L3.75251 27.645L3.75772 27.6598L3.76316 27.6746L5.63984 26.9832ZM4.13867 22.7996L6.01711 22.1129L6.01296 22.1017L4.13867 22.7996ZM18.9043 26.7371L17.7185 25.1266L16.608 25.9441L16.9774 27.2727L18.9043 26.7371ZM20.9223 33.9969L18.9953 34.5325L19.9216 37.865L22.3477 35.3997L20.9223 33.9969ZM26.5824 25.3344L26.1486 27.2868L26.1811 27.294L26.2138 27.3001L26.5824 25.3344ZM3.60978 21.7946C5.5901 21.14 7.44653 20.5348 9.17921 19.979L7.9575 16.1702C6.21207 16.73 4.34428 17.3389 2.35429 17.9968L3.60978 21.7946ZM9.17403 19.9807C10.8892 19.4357 12.6971 18.9213 14.5983 18.4379L13.6127 14.5613C11.6419 15.0623 9.75842 15.5979 7.96269 16.1685L9.17403 19.9807ZM14.6136 18.434C16.497 17.9392 18.2908 17.5507 19.996 17.2665L19.3384 13.321C17.4998 13.6274 15.5858 14.0428 13.5973 14.5653L14.6136 18.434ZM19.9998 17.2659C21.248 17.0554 22.5312 16.9492 23.8508 16.9492V12.9492C22.3157 12.9492 20.8098 13.0728 19.3345 13.3216L19.9998 17.2659ZM23.8508 16.9492C26.2671 16.9492 27.6432 17.0204 28.1765 17.1152L28.8766 13.177C27.9333 13.0093 26.1923 12.9492 23.8508 12.9492V16.9492ZM28.151 17.1105C29.102 17.2923 29.9849 17.5834 30.8062 17.9804L32.5469 14.379C31.3994 13.8244 30.1824 13.4264 28.9021 13.1817L28.151 17.1105ZM30.8178 17.986C31.5986 18.3572 32.2867 18.8537 32.891 19.4837L35.7777 16.7148C34.8398 15.7369 33.7561 14.9538 32.5353 14.3734L30.8178 17.986ZM32.9202 19.5134C33.5268 20.1201 34.0334 20.8529 34.4332 21.7323L38.0746 20.0771C37.49 18.7909 36.7169 17.6533 35.7486 16.685L32.9202 19.5134ZM34.4263 21.717C34.5077 21.9002 34.5492 22.0907 34.5492 22.3074H38.5492C38.5492 21.5398 38.3938 20.7951 38.0815 20.0924L34.4263 21.717ZM34.5492 22.3074C34.5492 23.4786 33.8688 25.3043 31.9223 27.8996L35.1223 30.2996C37.2117 27.5137 38.5492 24.8112 38.5492 22.3074H34.5492ZM31.9176 27.9059C29.967 30.528 28.0155 32.7938 26.0657 34.7122L28.871 37.5636C30.99 35.4788 33.0744 33.0525 35.1269 30.2933L31.9176 27.9059ZM26.0599 34.7179C24.0463 36.7152 22.5763 38.1113 21.6285 38.9348L24.252 41.9543C25.3057 41.0387 26.8545 39.5637 28.8768 37.5579L26.0599 34.7179ZM21.017 40.9932L25.4466 56.5217L29.2932 55.4244L24.8635 39.8959L21.017 40.9932ZM26.1998 54.351L19.7522 59.0022L22.0923 62.2462L28.54 57.5951L26.1998 54.351ZM22.8099 59.9633L11.5142 27.7004L7.73891 29.0222L19.0346 61.2851L22.8099 59.9633ZM9.62656 26.3613C9.26176 26.3613 8.98745 26.4612 8.86939 26.5089C8.73044 26.5651 8.62475 26.6258 8.56337 26.6634C8.44125 26.7383 8.34971 26.8118 8.30512 26.8486C8.20875 26.9282 8.12525 27.0096 8.07084 27.064C7.95304 27.1818 7.81496 27.3316 7.6685 27.4953L10.6495 30.1625C10.7819 30.0145 10.8612 29.9305 10.8993 29.8924C10.9228 29.8689 10.9018 29.8918 10.8526 29.9325C10.8316 29.9498 10.7598 30.0087 10.6536 30.0738C10.6002 30.1066 10.5015 30.1636 10.3685 30.2174C10.2565 30.2627 9.98726 30.3613 9.62656 30.3613V26.3613ZM7.6685 27.4953C7.39257 27.8037 7.02577 28.2113 6.56736 28.7188L9.53577 31.3999C9.9961 30.8903 10.3676 30.4775 10.6495 30.1625L7.6685 27.4953ZM6.56497 28.7214C6.1084 29.2287 5.86973 29.4866 5.80063 29.5557L8.62906 32.3841C8.78964 32.2236 9.10879 31.8744 9.53815 31.3973L6.56497 28.7214ZM7.21484 28.9699C7.79152 28.9699 8.19032 29.2157 8.34407 29.3224C8.52154 29.4454 8.63719 29.5696 8.68966 29.629C8.7971 29.7506 8.85786 29.8524 8.86786 29.8689C8.89814 29.919 8.90051 29.9311 8.86832 29.8619C8.81179 29.7404 8.7184 29.5199 8.58258 29.1764L4.86273 30.647C5.00582 31.009 5.13391 31.3176 5.24144 31.5488C5.29128 31.656 5.36133 31.8004 5.44493 31.9386C5.48159 31.9993 5.56542 32.1342 5.69235 32.2778C5.75456 32.3482 5.87905 32.4806 6.06447 32.6092C6.22617 32.7214 6.63202 32.9699 7.21484 32.9699V28.9699ZM8.5971 29.2143C8.33571 28.5118 7.97563 27.5379 7.51653 26.2918L3.76316 27.6746C4.22281 28.9222 4.5846 29.9007 4.84821 30.6092L8.5971 29.2143ZM7.52718 26.3214C7.08075 25.0483 6.57731 23.6453 6.01708 22.1129L2.26027 23.4863C2.81566 25.0055 3.313 26.3916 3.75251 27.645L7.52718 26.3214ZM6.01296 22.1017C5.45102 20.5925 5.02605 19.5116 4.77089 19.0013L1.19318 20.7901C1.33176 21.0673 1.67788 21.9223 2.26438 23.4975L6.01296 22.1017ZM16.9774 27.2727L18.9953 34.5325L22.8492 33.4613L20.8312 26.2015L16.9774 27.2727ZM22.3477 35.3997C23.4155 34.3148 24.7155 32.8608 26.2405 31.0541L23.1837 28.4741C21.69 30.2439 20.4634 31.6118 19.4968 32.594L22.3477 35.3997ZM26.2405 31.0541C27.0334 30.1146 27.68 29.2446 28.1385 28.4572C28.5638 27.7268 28.9762 26.8219 28.9762 25.8758H24.9762C24.9762 25.7335 25.0112 25.8787 24.6818 26.4444C24.3856 26.953 23.9002 27.6253 23.1837 28.4741L26.2405 31.0541ZM28.9762 25.8758C28.9762 25.4605 28.8908 24.8742 28.4952 24.3303C28.0719 23.7483 27.4792 23.4677 26.951 23.3686L26.2138 27.3001C25.9482 27.2503 25.5523 27.0845 25.2603 26.683C24.9959 26.3195 24.9762 25.9794 24.9762 25.8758H28.9762ZM27.0163 23.382C26.1423 23.1878 25.2668 23.0883 24.3922 23.0883V27.0883C24.9614 27.0883 25.546 27.1528 26.1486 27.2868L27.0163 23.382ZM24.3922 23.0883C21.8741 23.0883 19.6104 23.7336 17.7185 25.1266L20.0901 28.3477C21.1842 27.5421 22.579 27.0883 24.3922 27.0883V23.0883ZM55.0309 32.348L54.0747 34.1047L54.0871 34.1114L55.0309 32.348ZM57.8609 34.8828L56.2047 36.0039L56.2147 36.0186L56.2249 36.0332L57.8609 34.8828ZM59.4605 38.4512L57.5189 38.9306L57.5224 38.9448L57.5261 38.959L59.4605 38.4512ZM59.682 45.9816L57.7134 45.629L57.7108 45.6433L57.7085 45.6576L59.682 45.9816ZM57.7625 51.3465L56.1181 50.2081L56.1095 50.2205L56.1011 50.233L57.7625 51.3465ZM50.8227 58.0402L51.782 59.7951L51.791 59.7902L51.7999 59.7852L50.8227 58.0402ZM47.1559 59.5168L46.6585 57.5796L46.6429 57.5836L46.6274 57.5879L47.1559 59.5168ZM39.6008 59.3445L40.2626 57.4572L40.2554 57.4547L40.2482 57.4522L39.6008 59.3445ZM36.4016 57.6465L35.1229 59.1843L35.1392 59.1979L35.1557 59.211L36.4016 57.6465ZM32.9809 52.7492L31.1219 53.4869L31.1239 53.492L32.9809 52.7492ZM35.1711 36.6301L36.6289 37.9993L36.6305 37.9976L35.1711 36.6301ZM41.225 31.9297L42.1251 33.7158L42.1362 33.7101L41.225 31.9297ZM51.3148 30.8223L50.7796 32.7493L50.792 32.7528L50.8045 32.7561L51.3148 30.8223ZM53.5789 36.4824L55.502 35.933L51.6271 36.0458L53.5789 36.4824ZM51.7578 39.7801L50.3314 38.3782L50.3252 38.3845L50.319 38.3909L51.7578 39.7801ZM47.8695 40.8629L46.6201 42.4246L46.6879 42.4788L46.7601 42.527L47.8695 40.8629ZM47.8695 36.5563L46.2225 35.4216L46.2139 35.4342L46.2054 35.4469L47.8695 36.5563ZM50.2566 34.809L50.9897 36.6698L50.2566 32.809V34.809ZM47.1066 35.4242L46.3587 33.5693L46.3482 33.5736L47.1066 35.4242ZM44.5227 37.0238L45.8493 38.5205L45.8587 38.5122L45.868 38.5037L44.5227 37.0238ZM42.7754 39.2141L41.0156 38.2638L41.0121 38.2702L41.0087 38.2766L42.7754 39.2141ZM44.252 45.2926L43.1744 46.9775L43.1768 46.979L44.252 45.2926ZM51.0934 45.391L52.3927 46.9115L52.4006 46.9047L52.4084 46.8979L51.0934 45.391ZM53.1605 42.3887L55.0227 43.1184L55.026 43.11L53.1605 42.3887ZM54.0871 34.1114C54.9736 34.5858 55.6696 35.2134 56.2047 36.0039L59.5172 33.7617C58.6086 32.4194 57.4178 31.3571 55.9746 30.5847L54.0871 34.1114ZM56.2249 36.0332C56.8113 36.8672 57.2462 37.8262 57.5189 38.9306L61.4022 37.9717C61.0187 36.4183 60.3871 34.9984 59.497 33.7325L56.2249 36.0332ZM57.5261 38.959C57.8249 40.0973 57.9773 41.2961 57.9773 42.5609H61.9773C61.9773 40.9711 61.7852 39.43 61.395 37.9434L57.5261 38.959ZM57.9773 42.5609C57.9773 43.6307 57.8882 44.6527 57.7134 45.629L61.6507 46.3342C61.8696 45.1122 61.9773 43.8536 61.9773 42.5609H57.9773ZM57.7085 45.6576C57.5448 46.6545 57.3181 47.545 57.0357 48.3359L60.8026 49.6813C61.1764 48.6347 61.4583 47.5072 61.6556 46.3057L57.7085 45.6576ZM57.0357 48.3359C56.7523 49.1294 56.4399 49.7433 56.1181 50.2081L59.4069 52.4849C59.9711 51.67 60.4297 50.7253 60.8026 49.6813L57.0357 48.3359ZM56.1011 50.233C55.139 51.6685 54.1257 52.8793 53.067 53.8792L55.8135 56.7872C57.1173 55.5559 58.3188 54.1089 59.4239 52.46L56.1011 50.233ZM53.067 53.8792C51.9876 54.8986 50.9127 55.6976 49.8454 56.2952L51.7999 59.7852C53.1936 59.0048 54.5304 57.999 55.8135 56.7872L53.067 53.8792ZM49.8633 56.2853C48.7617 56.8876 47.6938 57.3138 46.6585 57.5796L47.6532 61.454C49.046 61.0964 50.4227 60.5382 51.782 59.7951L49.8633 56.2853ZM46.6274 57.5879C45.5931 57.8712 44.5813 58.009 43.5875 58.009V62.009C44.9562 62.009 46.3233 61.8186 47.6843 61.4457L46.6274 57.5879ZM43.5875 58.009C42.4088 58.009 41.3044 57.8225 40.2626 57.4572L38.939 61.2319C40.4237 61.7525 41.9771 62.009 43.5875 62.009V58.009ZM40.2482 57.4522C39.1833 57.0879 38.3274 56.6234 37.6474 56.0819L35.1557 59.211C36.2476 60.0805 37.5245 60.748 38.9534 61.2369L40.2482 57.4522ZM37.6802 56.1086C36.5149 55.1397 35.5548 53.7989 34.8378 52.0064L31.1239 53.492C32.0476 55.8011 33.3679 57.7251 35.1229 59.1843L37.6802 56.1086ZM34.8398 52.0115C34.1158 50.1868 33.7504 48.2558 33.7504 46.2031H29.7504C29.7504 48.7442 30.2053 51.1772 31.1219 53.4869L34.8398 52.0115ZM33.7504 46.2031C33.7504 42.6568 34.7603 39.9889 36.6289 37.9993L33.7132 35.2609C31.0209 38.1276 29.7504 41.8417 29.7504 46.2031H33.7504ZM36.6305 37.9976C38.4571 36.0482 40.292 34.6395 42.125 33.7157L40.325 30.1437C37.9908 31.3199 35.7898 33.0448 33.7117 35.2626L36.6305 37.9976ZM42.1362 33.7101C43.9588 32.7773 45.781 32.3301 47.6234 32.3301V28.3301C45.1018 28.3301 42.6584 28.9493 40.3138 30.1493L42.1362 33.7101ZM47.6234 32.3301C48.7302 32.3301 49.7801 32.4717 50.7796 32.7493L51.8501 28.8952C50.4871 28.5166 49.0761 28.3301 47.6234 28.3301V32.3301ZM50.8045 32.7561C51.8025 33.0194 52.8915 33.4607 54.0747 34.1047L55.987 30.5914C54.578 29.8245 53.1897 29.2486 51.8252 28.8885L50.8045 32.7561ZM51.6271 36.0458C51.4335 36.9117 51.0168 37.6807 50.3314 38.3782L53.1843 41.1819C54.3691 39.9763 55.1665 38.5469 55.5307 36.919L51.6271 36.0458ZM50.319 38.3909C49.5922 39.1437 49.1757 39.2074 49.0508 39.2074V43.2074C50.6978 43.2074 52.0859 42.3196 53.1966 41.1693L50.319 38.3909ZM49.0508 39.2074C49.0037 39.2074 48.9842 39.2016 48.9832 39.2013C48.982 39.2009 48.9822 39.2009 48.9829 39.2013C48.9836 39.2016 48.9824 39.2011 48.9789 39.1988L46.7601 42.527C47.4565 42.9912 48.2419 43.2074 49.0508 43.2074V39.2074ZM49.1189 39.3012C49.2066 39.3713 49.218 39.4304 49.1993 39.3781C49.1749 39.3097 49.1312 39.1327 49.1312 38.7957H45.1312C45.1312 40.0436 45.4378 41.4788 46.6201 42.4246L49.1189 39.3012ZM49.1312 38.7957C49.1312 38.5012 49.2212 38.1344 49.5336 37.6657L46.2054 35.4469C45.5335 36.4547 45.1312 37.5808 45.1312 38.7957H49.1312ZM49.5165 37.6909C49.741 37.3651 50.1677 36.9936 50.9897 36.6698L49.5236 32.9482C48.1799 33.4775 47.0153 34.2709 46.2225 35.4216L49.5165 37.6909ZM50.2566 32.809C48.9142 32.809 47.6105 33.0646 46.3587 33.5693L47.8546 37.2791C48.6372 36.9635 49.4335 36.809 50.2566 36.809V32.809ZM46.3482 33.5736C45.155 34.0626 44.0894 34.7147 43.1773 35.5439L45.868 38.5037C46.3996 38.0204 47.0567 37.6061 47.8651 37.2748L46.3482 33.5736ZM43.196 35.5271C42.3051 36.3169 41.5737 37.2302 41.0156 38.2638L44.5352 40.1644C44.863 39.5573 45.2965 39.0105 45.8493 38.5205L43.196 35.5271ZM41.0087 38.2766C40.446 39.3371 40.1355 40.4687 40.1355 41.6504H44.1355C44.1355 41.1915 44.2517 40.6988 44.5421 40.1515L41.0087 38.2766ZM40.1355 41.6504C40.1355 43.934 41.2555 45.7503 43.1744 46.9775L45.3295 43.6077C44.4265 43.0302 44.1355 42.4183 44.1355 41.6504H40.1355ZM43.1768 46.979C44.7106 47.9568 46.3271 48.5477 47.9926 48.5477V44.5477C47.2956 44.5477 46.4183 44.3018 45.3271 43.6061L43.1768 46.979ZM47.9926 48.5477C49.6436 48.5477 51.1357 47.9856 52.3927 46.9115L49.7941 43.8706C49.2464 44.3386 48.6712 44.5477 47.9926 44.5477V48.5477ZM52.4084 46.8979C53.5739 45.8807 54.4402 44.6046 55.0227 43.1184L51.2984 41.6589C50.9293 42.6009 50.4175 43.3263 49.7783 43.8842L52.4084 46.8979ZM55.026 43.11C55.5817 41.6728 55.8742 40.2147 55.8742 38.7465H51.8742C51.8742 39.6736 51.691 40.6436 51.2951 41.6674L55.026 43.11ZM55.8742 38.7465C55.8742 37.7666 55.7566 36.8244 55.502 35.933L51.6559 37.0319C51.7949 37.5186 51.8742 38.0857 51.8742 38.7465H55.8742ZM55.8922 17.8777L55.1188 16.0333L54.1384 16.4444L53.9307 17.487L55.8922 17.8777ZM68.3937 12.6359L70.3897 12.5081L70.2101 9.70566L67.6204 10.7915L68.3937 12.6359ZM70.2148 41.0598L68.2189 41.1876L68.4199 44.3236L71.1758 42.8138L70.2148 41.0598ZM80.5016 35.4242L80.7978 33.4463L80.1315 33.3465L79.5406 33.6702L80.5016 35.4242ZM91.182 37.0238L92.399 38.611L96.1382 35.7438L91.4783 35.0459L91.182 37.0238ZM77.2531 47.7043L76.0361 46.1172L73.9492 47.7174L76.0488 49.3011L77.2531 47.7043ZM90.3699 57.5973L92.3663 57.4778L92.3112 56.5563L91.5742 56.0005L90.3699 57.5973ZM90.9605 67.4656L89.7932 69.0896L93.2082 71.5444L92.957 67.3461L90.9605 67.4656ZM71.6176 53.5613L72.7849 51.9374L69.4087 49.5104L69.6202 53.663L71.6176 53.5613ZM72.2328 65.6445L72.2706 67.6442L74.3352 67.6051L74.2302 65.5428L72.2328 65.6445ZM60.5187 65.866L58.5214 65.9695L58.6216 67.9022L60.5566 67.8657L60.5187 65.866ZM58.3039 23.1195L60.3012 23.016L60.1786 20.6489L57.8658 21.1681L58.3039 23.1195ZM54.6863 23.9316L52.7249 23.5409L52.1242 26.5566L55.1244 25.8831L54.6863 23.9316ZM56.6655 19.7222L69.1671 14.4804L67.6204 10.7915L55.1188 16.0333L56.6655 19.7222ZM66.3978 12.7638L68.2189 41.1876L72.2108 40.9319L70.3897 12.5081L66.3978 12.7638ZM71.1758 42.8138L81.4625 37.1782L79.5406 33.6702L69.2539 39.3057L71.1758 42.8138ZM80.2053 37.4022L90.8858 39.0018L91.4783 35.0459L80.7978 33.4463L80.2053 37.4022ZM89.965 35.4367L76.0361 46.1172L78.4701 49.2914L92.399 38.611L89.965 35.4367ZM76.0488 49.3011L89.1656 59.194L91.5742 56.0005L78.4574 46.1075L76.0488 49.3011ZM88.3735 57.7168L88.9641 67.5851L92.957 67.3461L92.3663 57.4778L88.3735 57.7168ZM92.1279 65.8417L72.7849 51.9374L70.4502 55.1853L89.7932 69.0896L92.1279 65.8417ZM69.6202 53.663L70.2354 65.7462L74.2302 65.5428L73.615 53.4596L69.6202 53.663ZM72.195 63.6449L60.4809 63.8664L60.5566 67.8657L72.2706 67.6442L72.195 63.6449ZM62.5161 65.7625L60.3012 23.016L56.3066 23.223L58.5214 65.9695L62.5161 65.7625ZM57.8658 21.1681L54.2483 21.9802L55.1244 25.8831L58.742 25.071L57.8658 21.1681ZM56.6478 24.3223L57.8537 18.2684L53.9307 17.487L52.7249 23.5409L56.6478 24.3223ZM108.31 45.391L109.85 44.1153L107.999 41.8796L106.569 44.4061L108.31 45.391ZM114.241 52.5523L116.132 53.205L116.498 52.1424L115.781 51.2767L114.241 52.5523ZM110.845 56.3422L109.764 54.6593L109.757 54.6639L110.845 56.3422ZM104.496 59.0492L103.98 57.1167L103.973 57.1188L103.965 57.1209L104.496 59.0492ZM91.3543 59.1969L90.7108 61.0905L90.7164 61.0924L91.3543 59.1969ZM87.4414 56.5883L89.0117 55.3497L89.0069 55.3436L87.4414 56.5883ZM86.3832 41.6504L84.5116 40.9453L84.509 40.9524L86.3832 41.6504ZM89.2379 36.6301L87.864 35.1766L87.8598 35.1807L89.2379 36.6301ZM93.1262 33.8L92.1829 32.0364L92.1743 32.0411L93.1262 33.8ZM108.089 32.5449L107.412 34.4269L107.422 34.4305L107.432 34.4339L108.089 32.5449ZM113.035 35.4242L114.568 36.709L115.811 35.2254L114.369 33.9342L113.035 35.4242ZM99.5246 51.5434L97.9918 50.2586L95.2387 53.5434H99.5246V51.5434ZM102.921 50.8051L103.759 52.621L103.771 52.6153L102.921 50.8051ZM105.898 48.6641L107.325 50.0655L107.332 50.0592L107.338 50.0528L105.898 48.6641ZM101.493 39.657L103.049 40.9139L104.599 38.996L102.402 37.8755L101.493 39.657ZM96.4484 39.5832L95.6563 37.7468L95.6496 37.7497L95.643 37.7526L96.4484 39.5832ZM94.7012 40.8629L96.282 42.088L96.3118 42.0496L96.3396 42.0098L94.7012 40.8629ZM93.9383 49.0086L92.0245 49.5896L93.1213 53.2024L95.494 50.2655L93.9383 49.0086ZM88.8441 21.9137L87.8756 20.1638L86.0119 21.1954L87.1587 22.9905L88.8441 21.9137ZM101.961 14.6539L103.637 13.5633L102.622 12.0022L100.992 12.904L101.961 14.6539ZM107.596 23.3164L107.97 25.2812L110.899 24.7245L109.273 22.2258L107.596 23.3164ZM91.6742 26.3434L89.9888 27.4201L90.7177 28.561L92.0477 28.3082L91.6742 26.3434ZM106.77 46.6667L112.701 53.828L115.781 51.2767L109.85 44.1153L106.77 46.6667ZM112.351 51.8997C112.075 52.6973 111.342 53.6462 109.764 54.6593L111.926 58.025C113.925 56.7413 115.455 55.1637 116.132 53.205L112.351 51.8997ZM109.757 54.6639C108.194 55.6773 106.279 56.5038 103.98 57.1167L105.011 60.9817C107.634 60.2821 109.953 59.3039 111.933 58.0205L109.757 54.6639ZM103.965 57.1209C101.687 57.7478 99.4208 58.0582 97.1621 58.0582V62.0582C99.7925 62.0582 102.415 61.696 105.026 60.9775L103.965 57.1209ZM97.1621 58.0582C95.1707 58.0582 93.456 57.794 91.9922 57.3013L90.7164 61.0924C92.665 61.7482 94.8222 62.0582 97.1621 62.0582V58.0582ZM91.9978 57.3032C90.5986 56.8278 89.6465 56.1545 89.0117 55.3497L85.8711 57.8269C87.0738 59.3518 88.7303 60.4175 90.7108 61.0905L91.9978 57.3032ZM89.0069 55.3436C87.7544 53.7683 87.0543 51.6773 87.0543 48.9102H83.0543C83.0543 52.3774 83.9456 55.4052 85.8759 57.833L89.0069 55.3436ZM87.0543 48.9102C87.0543 46.695 87.452 44.5111 88.2574 42.3484L84.509 40.9524C83.5425 43.5475 83.0543 46.2034 83.0543 48.9102H87.0543ZM88.2548 42.3554C89.1266 40.0411 89.949 38.7137 90.616 38.0795L87.8598 35.1807C86.5252 36.4496 85.4445 38.469 84.5116 40.9453L88.2548 42.3554ZM90.6117 38.0836C91.6876 37.0666 92.8428 36.2274 94.0781 35.5589L92.1743 32.0411C90.6204 32.8819 89.1834 33.9295 87.8641 35.1766L90.6117 38.0836ZM94.0695 35.5636C95.3396 34.8842 96.6462 34.3786 97.9917 34.0422L97.0216 30.1617C95.3483 30.58 93.7346 31.2065 92.1829 32.0364L94.0695 35.5636ZM97.9917 34.0422C99.3388 33.7055 100.726 33.5359 102.158 33.5359V29.5359C100.407 29.5359 98.6932 29.7438 97.0216 30.1617L97.9917 34.0422ZM102.158 33.5359C104.022 33.5359 105.769 33.8361 107.412 34.4269L108.766 30.6629C106.668 29.9085 104.461 29.5359 102.158 29.5359V33.5359ZM107.432 34.4339C109.082 35.0081 110.498 35.837 111.701 36.9142L114.369 33.9342C112.751 32.4849 110.868 31.3942 108.746 30.6559L107.432 34.4339ZM111.502 34.1395L97.9918 50.2586L101.057 52.8281L114.568 36.709L111.502 34.1395ZM99.5246 53.5434C101.006 53.5434 102.424 53.2369 103.759 52.621L102.083 48.9892C101.284 49.3576 100.439 49.5434 99.5246 49.5434V53.5434ZM103.771 52.6153C105.085 51.9983 106.269 51.1407 107.325 50.0655L104.472 47.2626C103.723 48.025 102.922 48.5947 102.07 48.9948L103.771 52.6153ZM107.338 50.0528C108.368 48.9846 109.271 47.7547 110.051 46.3759L106.569 44.4061C105.939 45.5211 105.233 46.4732 104.459 47.2753L107.338 50.0528ZM102.402 37.8755C101.34 37.3333 100.21 37.0418 99.0324 37.0418V41.0418C99.5287 41.0418 100.039 41.1605 100.584 41.4386L102.402 37.8755ZM99.0324 37.0418C97.8662 37.0418 96.7358 37.2811 95.6563 37.7468L97.2406 41.4196C97.8345 41.1634 98.4268 41.0418 99.0324 41.0418V37.0418ZM95.643 37.7526C94.6411 38.1934 93.696 38.8112 93.0627 39.716L96.3396 42.0098C96.3954 41.9302 96.6151 41.6949 97.2539 41.4138L95.643 37.7526ZM93.1203 39.6377C91.8473 41.2804 91.1754 43.1504 91.1754 45.1941H95.1754C95.1754 44.0879 95.5207 43.0703 96.282 42.088L93.1203 39.6377ZM91.1754 45.1941C91.1754 45.9023 91.2463 46.5957 91.3939 47.2704L95.3015 46.4156C95.2193 46.0402 95.1754 45.6344 95.1754 45.1941H91.1754ZM91.3939 47.2704C91.5255 47.8722 91.7402 48.6528 92.0245 49.5896L95.852 48.4276C95.5786 47.5269 95.3995 46.8638 95.3015 46.4156L91.3939 47.2704ZM95.494 50.2655L103.049 40.9139L99.9376 38.4002L92.3825 47.7517L95.494 50.2655ZM89.8126 23.6635L102.929 16.4038L100.992 12.904L87.8756 20.1638L89.8126 23.6635ZM100.284 15.7446L105.92 24.4071L109.273 22.2258L103.637 13.5633L100.284 15.7446ZM107.223 21.3516L91.3007 24.3786L92.0477 28.3082L107.97 25.2812L107.223 21.3516ZM93.3596 25.2666L90.5295 20.8369L87.1587 22.9905L89.9888 27.4201L93.3596 25.2666Z" fill="black" mask="url(#path-3-outside-2_17_17600)"/>
</svg>
