<svg width="32" height="32" viewBox="0 0 32 32" fill="none" xmlns="http://www.w3.org/2000/svg">
<path fill-rule="evenodd" clip-rule="evenodd" d="M17.5533 15.9301C17.7703 15.7978 17.9544 15.5207 18.1029 15.2127C20.0569 16.0108 21.43 17.8968 21.43 20.0963C21.43 23.0181 19.0067 25.3868 16.0174 25.3868C14.7903 25.3868 13.6585 24.9876 12.7507 24.3149C12.4528 24.174 12.2078 24.0386 12.0073 23.9278C11.6963 23.756 11.4924 23.6433 11.3647 23.6609C10.9914 23.7124 11.0998 24.0556 11.1983 24.3674C11.2651 24.5792 11.3275 24.7766 11.231 24.8579C11.13 24.9432 10.8031 24.6316 10.4211 24.2676C9.90099 23.7721 9.27886 23.1793 8.98549 23.3573C8.75354 23.4981 8.97874 23.8801 9.2544 24.3476L9.27485 24.3822C9.3913 24.5799 9.52626 24.7811 9.64939 24.9648C9.89973 25.3379 10.1014 25.6387 10.0005 25.6896C9.87853 25.7511 9.02889 25.1779 8.3129 24.3822C8.03654 24.0752 7.76888 23.7423 7.5201 23.433V23.4329C6.97558 22.7558 6.52193 22.1917 6.26728 22.2586C5.96094 22.3389 6.19268 22.9704 6.53319 23.5781C6.69241 23.8623 6.87971 24.1517 7.04187 24.4023V24.4023C7.29409 24.7919 7.48552 25.0876 7.4161 25.124C7.32242 25.1729 6.49811 24.3696 5.93823 23.3573C5.60568 22.756 5.32645 22.0915 5.10039 21.5536C4.85523 20.9701 4.67262 20.5356 4.55237 20.4918C4.13458 20.3399 4.13458 21.1912 4.30214 22.4199C4.324 22.5802 4.35655 22.7483 4.39663 22.9195C6.02163 28.1741 11.0135 32 16.9195 32C24.1437 32 30 26.2758 30 19.2145C30 12.4938 24.695 6.98419 17.9547 6.46838C17.9632 6.15178 18.1285 5.52394 18.1285 5.52394C18.1285 5.52394 19.3185 2.6467 19.3814 2.03187C19.3855 1.99106 19.3904 1.94672 19.3957 1.89949C19.4699 1.23518 19.6078 0 18.5445 0C17.9766 0 17.7126 0.422165 17.4106 0.904994V0.905C17.2947 1.09036 17.1731 1.28466 17.0266 1.46744C15.9717 2.78398 14.1979 4.42805 13.1921 5.30394C11.0662 7.15525 8.98043 8.67675 7.76394 9.56413L7.76387 9.56419C7.2106 9.96775 6.83719 10.2402 6.72162 10.3527C5.85071 11.2012 2.72806 16.8304 2.72806 16.8304C2.72806 16.8304 1.71822 18.6364 2.07716 19.0027C2.4361 19.3689 3.30167 19.285 3.30167 19.285C3.30167 19.285 14.93 16.6189 15.9711 16.4087C16.2514 16.3521 16.4493 16.3194 16.6012 16.2943C17.0136 16.2263 17.0877 16.214 17.5533 15.9301ZM9.33164 12.504C8.70745 13.0969 7.67226 14.5122 7.67226 14.5122C7.67226 14.5122 9.59618 14.6307 10.6558 13.6241C11.7154 12.6175 11.4726 10.9021 11.4726 10.9021C11.4726 10.9021 9.95577 11.9111 9.33164 12.504Z" fill="#0B6DC3"/>
</svg>
