<svg width="32" height="32" viewBox="0 0 32 32" fill="none" xmlns="http://www.w3.org/2000/svg">
<path fill-rule="evenodd" clip-rule="evenodd" d="M24.245 2.03613L24.346 10.9149L16.611 14.6325L16.5156 6.24919L24.245 2.03613Z" fill="#73CEC0"/>
<path fill-rule="evenodd" clip-rule="evenodd" d="M32.0004 16.0273L24.3433 20.4123L16.6816 16.0204L24.3393 11.9932L32.0004 16.0273Z" fill="#73CEC0"/>
<path fill-rule="evenodd" clip-rule="evenodd" d="M15.3188 16.0273L7.66169 20.4123L0 16.0204L7.65771 11.9932L15.3188 16.0273Z" fill="#73CEC0"/>
<path fill-rule="evenodd" clip-rule="evenodd" d="M7.57617 2L15.5237 5.94079L15.3205 14.5286L7.81655 10.8078L7.57617 2Z" fill="#73CEC0"/>
<path fill-rule="evenodd" clip-rule="evenodd" d="M24.4632 29.9203L16.5156 25.9795L16.7188 17.3916L24.2228 21.1125L24.4632 29.9203Z" fill="#73CEC0"/>
<path fill-rule="evenodd" clip-rule="evenodd" d="M7.85102 29.9997L7.75 21.1209L15.4851 17.4033L15.5804 25.7865L7.85102 29.9997Z" fill="#73CEC0"/>
</svg>
