<svg width="32" height="33" viewBox="0 0 32 33" fill="none" xmlns="http://www.w3.org/2000/svg">
<path fill-rule="evenodd" clip-rule="evenodd" d="M26.7388 24.991C29.9703 22.4071 32 18.6739 32 14.5223C32 6.72295 24.8366 0.400391 16 0.400391C7.16344 0.400391 0 6.72295 0 14.5223C0 18.524 1.88586 22.137 4.91596 24.7067C4.73232 25.3408 4.63158 26.0305 4.63158 26.7516C4.63158 29.8713 6.51669 32.4004 8.84212 32.4004C10.3531 32.4004 11.6782 31.3326 12.4211 29.7288C13.1639 31.3326 14.489 32.4004 16 32.4004C17.3774 32.4004 18.6002 31.5131 19.3684 30.1415C20.1366 31.5131 21.3595 32.4004 22.7368 32.4004C25.0623 32.4004 26.9474 29.8713 26.9474 26.7516C26.9474 26.1369 26.8741 25.545 26.7388 24.991ZM25.2632 14.8023C25.2632 18.762 21.0216 21.9719 15.7895 21.9719C10.5573 21.9719 6.31581 18.762 6.31581 14.8023C6.31581 10.8427 10.5573 7.63277 15.7895 7.63277C21.0216 7.63277 25.2632 10.8427 25.2632 14.8023Z" fill="#B567CE"/>
</svg>
