<svg width="32" height="32" viewBox="0 0 32 32" fill="none" xmlns="http://www.w3.org/2000/svg">
<path fill-rule="evenodd" clip-rule="evenodd" d="M27.7123 26.5769C27.7123 26.5769 23.7743 29.8134 15.9379 28.4741C9.99244 27.4579 6.82142 20.7418 6.82142 17.1318C6.82142 8.57274 13.0033 6.62497 17.1826 6.62497C21.362 6.62497 24.0884 10.8004 24.0884 14.0333C24.0884 17.2661 21.8571 20.0938 18.3847 20.0938C14.9123 20.0938 13.8839 17.5957 13.8839 15.299C13.8839 13.0024 15.6972 12.1933 17.3509 12.1933C19.0046 12.1933 19.5708 13.64 19.5708 14.8835C19.5708 16.127 18.6293 16.5723 17.844 16.5723C17.0588 16.5723 16.9811 16.1663 16.6806 15.7396C16.38 15.313 17.0639 13.6981 15.9379 13.6981C14.8119 13.6981 14.602 15.5546 14.602 15.5546C14.602 15.5546 15.0125 19.1383 18.3847 19.0765C21.7569 19.0146 23.3567 16.3431 22.8918 13.6981C22.4268 11.0531 19.9219 8.24246 15.5255 8.81039C11.1292 9.37833 9.33422 13.9303 10.1254 18.7948C10.9166 23.6594 16.6036 26.478 21.075 25.4639C25.5465 24.4499 30 21.1327 30 12.7222C30 4.31165 22.8918 -0.743842 14.4159 0.0893309C5.93994 0.922501 0.678481 8.51605 1.01526 17.6398C1.35204 26.7636 9.80042 31.7327 16.9444 31.9888C24.0884 32.245 28.4679 28.0072 28.4679 28.0072C28.4679 28.0072 29.4529 27.1072 29.0667 26.4044C28.6806 25.7015 27.7123 26.5769 27.7123 26.5769Z" fill="#FA7179"/>
</svg>
