<svg width="32" height="32" viewBox="0 0 32 32" fill="none" xmlns="http://www.w3.org/2000/svg">
<path fill-rule="evenodd" clip-rule="evenodd" d="M0.00319442 16.0198C-0.00106279 16.0125 -0.00106493 16.0033 0.00318873 15.9959L8.0497 2.01172C8.05389 2.00446 8.06157 2 8.06982 2H24.0184C24.0267 2 24.0344 2.0045 24.0386 2.01182L31.9969 15.996C32.001 16.0033 32.001 16.0124 31.9969 16.0197L24.0386 29.9882C24.0344 29.9955 24.0267 30 24.0184 30H8.06982C8.06157 30 8.05389 29.9955 8.0497 29.9883L0.00319442 16.0198ZM23.4136 16C23.4136 20.1633 20.0955 23.5384 16.0025 23.5384C11.9095 23.5384 8.59145 20.1633 8.59145 16C8.59145 11.8366 11.9095 8.46156 16.0025 8.46156C20.0955 8.46156 23.4136 11.8366 23.4136 16Z" fill="#5A8EA2"/>
</svg>
